<svg
  width="100%"
  height="100%"
  id="svg"
  viewBox="0 0 1440 390"
  xmlns="http://www.w3.org/2000/svg"
  class="transition duration-300 ease-in-out delay-150"
>
  <path
    d="M 0,400 C 0,400 0,100 0,100 C 41.56818349981502,105.81260328030584 83.13636699963004,111.62520656061166 140,102 C 196.86363300036996,92.37479343938834 269.02271550129484,67.31177703785917 333,64 C 396.97728449870516,60.68822296214082 452.7727709951905,79.12768528795165 497,77 C 541.2272290048095,74.87231471204835 573.886200517943,52.1774818103342 631,62 C 688.113799482057,71.8225181896658 769.6824269330373,114.16238747071154 820,133 C 870.3175730669627,151.83761252928846 889.3840917499074,147.1729683068196 941,129 C 992.6159082500926,110.8270316931804 1076.7812060673327,79.14573930201011 1131,78 C 1185.2187939326673,76.85426069798989 1209.4910839807621,106.24407448513998 1256,115 C 1302.5089160192379,123.75592551486002 1371.254458009619,111.87796275743001 1440,100 C 1440,100 1440,400 1440,400 Z"
    stroke="none"
    stroke-width="0"
    fill="#8ed1fc"
    fill-opacity="0.4"
    class="transition-all duration-300 ease-in-out delay-150 path-0"
  ></path>
</svg>
